<?xml version="1.0" standalone="no"?><!DOCTYPE svg PUBLIC "-//W3C//DTD SVG 1.1//EN" "http://www.w3.org/Graphics/SVG/1.1/DTD/svg11.dtd"><svg t="1657790228442" class="icon" viewBox="0 0 1024 1024" version="1.1" xmlns="http://www.w3.org/2000/svg" p-id="1756" width="64" height="64" xmlns:xlink="http://www.w3.org/1999/xlink"><defs><style type="text/css">@font-face { font-family: "feedback-iconfont"; src: url("//at.alicdn.com/t/font_1031158_u69w8yhxdu.woff2?t=1630033759944") format("woff2"), url("//at.alicdn.com/t/font_1031158_u69w8yhxdu.woff?t=1630033759944") format("woff"), url("//at.alicdn.com/t/font_1031158_u69w8yhxdu.ttf?t=1630033759944") format("truetype"); }
</style></defs><path d="M640 405.333333c-17.066667-17.066667-42.666667-17.066667-59.733333 0L512 473.6l-64-64c-17.066667-17.066667-42.666667-17.066667-59.733333 0s-17.066667 42.666667 0 59.733333l64 64L384 597.333333c-17.066667 17.066667-17.066667 42.666667 0 59.733334 8.533333 8.533333 21.333333 12.8 29.866667 12.8s21.333333-4.266667 29.866666-12.8l64-64 64 64c8.533333 8.533333 21.333333 12.8 29.866667 12.8s21.333333-4.266667 29.866667-12.8c17.066667-17.066667 17.066667-42.666667 0-59.733334l-64-64L640 469.333333c12.8-17.066667 12.8-46.933333 0-64z" p-id="1757"></path><path d="M938.666667 622.933333c-4.266667-200.533333-128-375.466667-307.2-435.2C605.866667 149.333333 558.933333 128 512 128c-46.933333 0-93.866667 21.333333-119.466667 64C213.333333 247.466667 93.866667 422.4 85.333333 622.933333 29.866667 648.533333 0 682.666667 0 725.333333c0 136.533333 320 170.666667 512 170.666667s512-34.133333 512-170.666667c0-38.4-29.866667-72.533333-85.333333-102.4zM512 810.666667c-256 0-413.866667-55.466667-426.666667-85.333334 0 0 8.533333-17.066667 59.733334-34.133333 17.066667-8.533333 29.866667-21.333333 25.6-42.666667V640c0-174.933333 106.666667-328.533333 260.266666-371.2 12.8-4.266667 21.333333-8.533333 25.6-21.333333 12.8-21.333333 34.133333-34.133333 55.466667-34.133334s42.666667 12.8 55.466667 34.133334c4.266667 8.533333 12.8 17.066667 25.6 21.333333 153.6 42.666667 260.266667 196.266667 260.266666 371.2v12.8c0 17.066667 8.533333 34.133333 25.6 38.4h4.266667c42.666667 17.066667 55.466667 29.866667 55.466667 29.866667-12.8 34.133333-170.666667 89.6-426.666667 89.6z" p-id="1758"></path></svg>