<?xml version="1.0" standalone="no"?><!DOCTYPE svg PUBLIC "-//W3C//DTD SVG 1.1//EN" "http://www.w3.org/Graphics/SVG/1.1/DTD/svg11.dtd"><svg t="1651195799566" class="icon" viewBox="0 0 1024 1024" version="1.1" xmlns="http://www.w3.org/2000/svg" p-id="10843" xmlns:xlink="http://www.w3.org/1999/xlink" width="128" height="128"><defs><style type="text/css">@font-face { font-family: "feedback-iconfont"; src: url("//at.alicdn.com/t/font_1031158_u69w8yhxdu.woff2?t=1630033759944") format("woff2"), url("//at.alicdn.com/t/font_1031158_u69w8yhxdu.woff?t=1630033759944") format("woff"), url("//at.alicdn.com/t/font_1031158_u69w8yhxdu.ttf?t=1630033759944") format("truetype"); }
</style></defs><path d="M81.92 282.4192m51.2 0l757.76 0q51.2 0 51.2 51.2l0 552.96q0 51.2-51.2 51.2l-757.76 0q-51.2 0-51.2-51.2l0-552.96q0-51.2 51.2-51.2Z" p-id="10844"></path><path d="M804.93568 91.8528a20.48 20.48 0 0 1 0 28.9792L616.67328 309.1456a20.48 20.48 0 0 1-28.96896-28.9792L775.96672 91.8528a20.48 20.48 0 0 1 28.96896 0z" p-id="10845"></path><path d="M210.65728 93.3888a20.224 20.224 0 0 0 0 28.5696l185.344 185.344a20.18304 20.18304 0 0 0 28.5184-28.5696l-185.344-185.344a20.15232 20.15232 0 0 0-28.5184 0z" p-id="10846"></path><path d="M358.4 517.9392m-71.68 0a71.68 71.68 0 1 0 143.36 0 71.68 71.68 0 1 0-143.36 0Z" fill="#EBBA50" p-id="10847"></path><path d="M665.6 517.9392m-71.68 0a71.68 71.68 0 1 0 143.36 0 71.68 71.68 0 1 0-143.36 0Z" fill="#EBBA50" p-id="10848"></path><path d="M0 456.4992m20.48 0l0 0q20.48 0 20.48 20.48l0 225.28q0 20.48-20.48 20.48l0 0q-20.48 0-20.48-20.48l0-225.28q0-20.48 20.48-20.48Z" p-id="10849"></path><path d="M983.04 456.4992m20.48 0l0 0q20.48 0 20.48 20.48l0 225.28q0 20.48-20.48 20.48l0 0q-20.48 0-20.48-20.48l0-225.28q0-20.48 20.48-20.48Z" p-id="10850"></path></svg>